<?xml version="1.0" encoding="utf-8"?>
<!DOCTYPE svg PUBLIC "-//W3C//DTD SVG 1.1//EN" "http://www.w3.org/Graphics/SVG/1.1/DTD/svg11.dtd">
<svg style="width:308px;height:308px;" version="1.1" id="图形" xmlns="http://www.w3.org/2000/svg" xmlns:xlink="http://www.w3.org/1999/xlink" x="0px" y="0px" width="1024px" height="1024px" viewBox="0 0 1024 1024" enable-background="new 0 0 1024 1024" xml:space="preserve">
  <path class="svgpath" data-index="path_0" fill="#bfbfbf" d="M565.3996 514.2374 565.3996 514.2374l-26.3414-26.3414L565.3996 514.2374zM512.6922 3.6454C231.1404 3.6454 2.901 231.8838 2.901 513.4367c0 281.5508 228.2394 509.7933 509.7912 509.7933 281.5539 0 509.7933-228.2424 509.7933-509.7933C1022.4855 231.8838 794.2461 3.6454 512.6922 3.6454zM776.151 724.9889l-52.6828 52.6807L512.7178 566.9181 301.9653 777.6707l-52.6807-52.6807 210.7525-210.7515L249.2846 303.486l52.6807-52.6828 237.0929 237.0929-26.3414-26.3414 210.7515-210.7515 52.6828 52.6828L565.3996 514.2374 776.151 724.9889z" />

</svg>
