<?xml version="1.0" standalone="no"?><!DOCTYPE svg PUBLIC "-//W3C//DTD SVG 1.1//EN" "http://www.w3.org/Graphics/SVG/1.1/DTD/svg11.dtd"><svg t="1509342733067" class="icon" style="" viewBox="0 0 1024 1024" version="1.1" xmlns="http://www.w3.org/2000/svg" p-id="5056" xmlns:xlink="http://www.w3.org/1999/xlink" width="200" height="200"><defs><style type="text/css"></style></defs><path d="M917.113109 918.567739c-0.106424-1.122567-0.246617-2.233877-0.364297-3.348258-0.005117-3.169179-0.381693-6.246261-1.073448-9.201569C897.08496 761.1505 802.344203 640.123053 672.851966 584.390727c74.915223-51.333132 124.078946-137.517003 124.078946-235.1793 0-157.325142-127.552048-284.877189-284.876166-284.877189-157.345608 0-284.897655 127.552048-284.897655 284.877189 0 97.698113 49.199539 183.910637 124.166951 235.235582-128.151705 55.211463-222.24778 174.377516-242.126526 317.304739-1.49198 4.232394-2.312672 8.78099-2.312672 13.524015l0.310062 3.27458c-0.001023 0.007163-0.001023 0.010233-0.001023 0.017396l0.00307 0 0.045025 0.477884c0 22.449291 18.187221 40.619116 40.619116 40.619116 22.452361 0 40.62014-18.169825 40.62014-40.619116l-0.045025-0.477884 0.747014 0c18.922978-155.099451 146.970306-276.479939 305.058834-285.030685 5.894244 0.364297 11.82942 0.571005 17.812691 0.571005 5.995551 0 11.941983-0.206708 17.845437-0.573051 158.077272 8.53335 286.159392 129.919978 305.084417 285.032732l0.833995 0 0.045025 0.477884c0 22.449291 18.187221 40.619116 40.62014 40.619116 22.452361 0 40.621163-18.169825 40.621163-40.619116l-0.045025-0.477884L917.113109 918.567739zM308.477188 349.290221c0-112.379487 91.118254-203.496717 203.497741-203.496717 112.38051 0 203.496717 91.117231 203.496717 203.496717 0 105.803721-80.770582 192.748932-184.003757 202.563462-6.40078-0.298805-12.840446-0.454348-19.314904-0.454348-6.560416 0-13.08297 0.155543-19.567661 0.463558C389.300982 542.095435 308.477188 455.128735 308.477188 349.290221z" p-id="5057" fill="#1C84C6"></path></svg>